#!OML:ASF H:\Pregnant\Project 1\Capture day 1\Session 1\femalepreg.ASF
:FULLY-SPECIFIED
:DEGREES
389
root 7.16707 15.8543 19.834 -150.289 2.33983 -175.996
lowerback -8.60835 2.26249 2.70039
upperback -8.22077 3.87075 0.144286
thorax -3.59192 2.2475 -1.17764
lowerneck -24.8812 15.1615 9.27835
upperneck 8.19197 19.1239 -11.9528
head 8.53453 8.04172 -2.48467
rclavicle 1.12189e-014 1.30701e-014
rhumerus -28.0652 23.4617 -89.2566
rradius 79.8273
rwrist -53.3423
rhand -32.6849 -51.2892
rfingers 7.12502
rthumb -5.90998 -81.1868
lclavicle 1.12189e-014 1.30701e-014
lhumerus -30.8661 -40.5838 97.6124
lradius 78.1538
lwrist 82.3718
lhand -55.3225 19.8549
lfingers 7.12502
lthumb -27.6886 47.8367
rfemur -44.2793 3.43386 19.4808
rtibia 27.6476
rfoot -7.65951 -28.5291
rtoes 3.96626
lfemur -45.7727 -1.08421 -13.0618
ltibia 30.4733
lfoot -9.72414 14.6188
ltoes -17.8451
390
root 7.15362 15.8691 19.816 -150.588 2.17052 -176.01
lowerback -8.86535 2.2702 2.72598
upperback -8.30058 3.89989 0.108447
thorax -3.53132 2.27247 -1.216
lowerneck -24.2387 15.3535 9.59645
upperneck 8.31869 19.4136 -12.0698
head 8.55223 8.21326 -2.53274
rclavicle -2.77926e-014 -1.0635e-014
rhumerus -28.4748 23.2706 -89.3744
rradius 79.7909
rwrist -53.4704
rhand -32.8138 -51.4658
rfingers 7.12502
rthumb -6.03446 -81.3598
lclavicle -2.77926e-014 -1.0635e-014
lhumerus -31.0309 -40.6114 97.805
lradius 77.9795
lwrist 82.8978
lhand -55.1922 20.4419
lfingers 7.12502
lthumb -27.564 48.4436
rfemur -43.5071 4.23731 19.0142
rtibia 27.0778
rfoot -7.78572 -29.3948
rtoes 5.28888
lfemur -45.073 -1.49971 -12.9641
ltibia 29.8839
lfoot -9.54031 14.8142
ltoes -17.883
391
root 7.14048 15.8824 19.7979 -150.896 1.99455 -176.019
lowerback -9.10963 2.28027 2.75211
upperback -8.36689 3.92984 0.0778512
thorax -3.46381 2.29704 -1.24914
lowerneck -23.5967 15.5595 9.91749
upperneck 8.42326 19.7227 -12.2019
head 8.56719 8.39208 -2.58346
rclavicle 2.56494e-014 4.64659e-015
rhumerus -28.8534 23.075 -89.4747
rradius 79.7535
rwrist -53.5934
rhand -32.9638 -51.7182
rfingers 7.12502
rthumb -6.17926 -81.608
lclavicle 2.56494e-014 4.64659e-015
lhumerus -31.1492 -40.642 97.9725
lradius 77.7926
lwrist 83.428
lhand -55.0362 20.821
lfingers 7.12502
lthumb -27.4147 48.8464
rfemur -42.7457 5.0231 18.5883
rtibia 26.5431
rfoot -7.9458 -30.1883
rtoes 6.51076
lfemur -44.3899 -1.88129 -12.8806
ltibia 29.3365
lfoot -9.37928 14.9697
ltoes -17.9241
392
root 7.12787 15.8943 19.78 -151.215 1.80979 -176.024
lowerback -9.32825 2.28985 2.77913
upperback -8.43045 3.95885 0.0506371
thorax -3.40784 2.32053 -1.28058
lowerneck -22.9287 15.7755 10.2491
upperneck 8.50293 20.0461 -12.345
head 8.57432 8.57852 -2.63878
rclavicle 1.31167e-014 1.43373e-014
rhumerus -29.2224 22.8673 -89.5725
rradius 79.7162
rwrist -53.7056
rhand -33.093 -51.9613
rfingers 7.12502
rthumb -6.30402 -81.8475
lclavicle 1.31167e-014 1.43373e-014
lhumerus -31.2585 -40.6737 98.1322
lradius 77.5985
lwrist 83.9119
lhand -54.8717 21.0961
lfingers 7.12502
lthumb -27.2574 49.1463
rfemur -41.9894 5.78847 18.2035
rtibia 26.0435
rfoot -8.19323 -30.8484
rtoes 7.66217
lfemur -43.7227 -2.23038 -12.8099
ltibia 28.8325
lfoot -9.24153 15.0852
ltoes -17.9733
393
root 7.11547 15.9045 19.7624 -151.532 1.62234 -176.023
lowerback -9.53652 2.29581 2.80213
upperback -8.49301 3.98359 0.0306322
thorax -3.35751 2.34212 -1.30308
lowerneck -22.2294 16.0047 10.6062
upperneck 8.55222 20.3875 -12.5187
head 8.57561 8.77318 -2.70645
rclavicle -2.74004e-014 -1.40827e-014
rhumerus -29.5803 22.6618 -89.6686
rradius 79.6786
rwrist -53.806
rhand -33.2179 -52.2736
rfingers 7.12502
rthumb -6.42454 -82.1562
lclavicle -2.74004e-014 -1.40827e-014
lhumerus -31.3589 -40.694 98.2839
lradius 77.3956
lwrist 84.3063
lhand -54.7001 21.3164
lfingers 7.12502
lthumb -27.0932 49.3923
rfemur -41.2611 6.52775 17.8576
rtibia 25.5778
rfoot -8.49637 -31.3112
rtoes 8.59144
lfemur -43.0881 -2.54484 -12.7526
ltibia 28.3734
lfoot -9.12739 15.1635
ltoes -18.0107
394
root 7.10322 15.9133 19.7453 -151.844 1.42707 -176.012
lowerback -9.73391 2.29718 2.8312
upperback -8.55381 4.00204 0.0196522
thorax -3.31199 2.36035 -1.32056
lowerneck -21.5009 16.245 10.9859
upperneck 8.56574 20.745 -12.7236
head 8.56952 8.97518 -2.78668
rclavicle -2.22025e-014 -1.40516e-014
rhumerus -29.921 22.4596 -89.7625
rradius 79.6382
rwrist -53.8962
rhand -33.3866 -52.8254
rfingers 7.12502
rthumb -6.58742 -82.703
lclavicle -2.22025e-014 -1.40516e-014
lhumerus -31.4394 -40.7055 98.4189
lradius 77.1787
lwrist 84.5875
lhand -54.5178 21.5375
lfingers 7.12502
lthumb -26.9189 49.6404
rfemur -40.5632 7.25141 17.5501
rtibia 25.1454
rfoot -8.86929 -31.5567
rtoes 9.29213
lfemur -42.4887 -2.81771 -12.7039
ltibia 27.9585
lfoot -9.0332 15.1963
ltoes -18.061
395
root 7.09103 15.9209 19.7288 -152.151 1.22564 -175.989
lowerback -9.91898 2.29671 2.86928
upperback -8.61723 4.01849 0.0144355
thorax -3.27619 2.37736 -1.33804
lowerneck -20.735 16.4902 11.3891
upperneck 8.54329 21.1112 -12.9586
head 8.55435 9.18211 -2.88108
rclavicle -5.62778e-014 -1.71949e-014
rhumerus -30.2534 22.2473 -89.8584
rradius 79.5948
rwrist -53.9799
rhand -33.5428 -53.4293
rfingers 7.12502
rthumb -6.73825 -83.3021
lclavicle -5.62778e-014 -1.71949e-014
lhumerus -31.5169 -40.7148 98.5489
lradius 76.9513
lwrist 84.7461
lhand -54.3368 21.7957
lfingers 7.12502
lthumb -26.7457 49.9252
rfemur -39.897 7.97324 17.2722
rtibia 24.7439
rfoot -9.30544 -31.6007
rtoes 9.76126
lfemur -41.9242 -3.05953 -12.6577
ltibia 27.5871
lfoot -8.95787 15.196
ltoes -18.1167
396
root 7.07907 15.9277 19.7131 -152.447 1.01477 -175.959
lowerback -10.0948 2.2966 2.91754
upperback -8.67967 4.0349 0.0123204
thorax -3.24421 2.39384 -1.35842
lowerneck -19.9402 16.736 11.8147
upperneck 8.46959 21.4808 -13.2388
head 8.52804 9.38989 -2.99519
rclavicle -3.40388e-014 -1.0312e-014
rhumerus -30.5661 22.0166 -89.9476
rradius 79.5482
rwrist -54.0617
rhand -33.7095 -54.2313
rfingers 7.12502
rthumb -6.89916 -84.0989
lclavicle -3.40388e-014 -1.0312e-014
lhumerus -31.5764 -40.7323 98.6663
lradius 76.7117
lwrist 84.7881
lhand -54.1128 22.0849
lfingers 7.12502
lthumb -26.5313 50.247
rfemur -39.2715 8.70205 17.0178
rtibia 24.3717
rfoot -9.74614 -31.5225
rtoes 9.98905
lfemur -41.4012 -3.27994 -12.6102
ltibia 27.2565
lfoot -8.89306 15.1708
ltoes -18.1874
397
root 7.06729 15.9338 19.6978 -152.736 0.802586 -175.916
lowerback -10.2638 2.30469 2.98064
upperback -8.73688 4.06019 0.00990591
thorax -3.20933 2.41369 -1.38674
lowerneck -19.1285 16.9781 12.2513
upperneck 8.35089 21.8485 -13.5534
head 8.4918 9.59636 -3.12423
rclavicle 1.78192e-014 -1.73937e-015
rhumerus -30.8596 21.7543 -90.0282
rradius 79.5009
rwrist -54.1491
rhand -33.9009 -55.1471
rfingers 7.12502
rthumb -7.08395 -85.0085
lclavicle 1.78192e-014 -1.73937e-015
lhumerus -31.6037 -40.7741 98.7671
lradius 76.4556
lwrist 84.7391
lhand -53.8329 22.3766
lfingers 7.12502
lthumb -26.2634 50.5789
rfemur -38.6823 9.44947 16.7857
rtibia 24.0281
rfoot -10.1674 -31.4116
rtoes 10.0431
lfemur -40.9091 -3.48571 -12.5546
ltibia 26.9632
lfoot -8.84133 15.1377
ltoes -18.2549
398
root 7.05582 15.9392 19.6831 -153.017 0.586267 -175.862
lowerback -10.4258 2.32133 3.06064
upperback -8.78878 4.09444 0.00425451
thorax -3.17121 2.43673 -1.42713
lowerneck -18.3178 17.2165 12.699
upperneck 8.19622 22.2137 -13.9001
head 8.45149 9.80036 -3.26619
rclavicle 4.22262e-014 5.96354e-016
rhumerus -31.1322 21.4579 -90.1011
rradius 79.4497
rwrist -54.2438
rhand -34.0844 -56.0091
rfingers 7.12502
rthumb -7.26103 -85.8645
lclavicle 4.22262e-014 5.96354e-016
lhumerus -31.6006 -40.8456 98.8496
lradius 76.186
lwrist 84.6222
lhand -53.4901 22.659
lfingers 7.12502
lthumb -25.9351 50.9097
rfemur -38.1284 10.205 16.5785
rtibia 23.7147
rfoot -10.5622 -31.3368
rtoes 10.0402
lfemur -40.4493 -3.68252 -12.4894
ltibia 26.7036
lfoot -8.79767 15.1008
ltoes -18.3217
399
root 7.04471 15.9441 19.6688 -153.29 0.369666 -175.801
lowerback -10.5886 2.34481 3.14745
upperback -8.82872 4.13448 -0.000890058
thorax -3.1193 2.46172 -1.46948
lowerneck -17.5276 17.457 13.1444
upperneck 8.01316 22.5842 -14.2678
head 8.41109 10.005 -3.41276
rclavicle -3.52159e-014 -1.47598e-014
rhumerus -31.3743 21.1391 -90.1594
rradius 79.3954
rwrist -54.3559
rhand -34.2447 -56.72
rfingers 7.12502
rthumb -7.41579 -86.57
lclavicle -3.52159e-014 -1.47598e-014
lhumerus -31.5522 -40.9381 98.9095
lradius 75.9008
lwrist 84.4561
lhand -53.0842 22.8991
lfingers 7.12502
lthumb -25.5464 51.2062
rfemur -37.6054 10.9587 16.3938
rtibia 23.4296
rfoot -10.9237 -31.3324
rtoes 10.0425
lfemur -40.0187 -3.86695 -12.4218
ltibia 26.4761
lfoot -8.76705 15.0592
ltoes -18.374
400
root 7.03412 15.9484 19.6551 -153.555 0.154402 -175.74
lowerback -10.7448 2.37232 3.2349
upperback -8.8635 4.1783 -0.00917827
thorax -3.06506 2.488 -1.51509
lowerneck -16.762 17.6871 13.5442
upperneck 7.81394 22.9449 -14.6077
head 8.36164 10.2062 -3.54621
rclavicle -4.02694e-014 -6.4605e-016
rhumerus -31.6042 20.7995 -90.2156
rradius 79.3422
rwrist -54.4875
rhand -34.3768 -57.1687
rfingers 7.12502
rthumb -7.54331 -87.0142
lclavicle -4.02694e-014 -6.4605e-016
lhumerus -31.4787 -41.0495 98.9521
lradius 75.6054
lwrist 84.2585
lhand -52.6238 23.0846
lfingers 7.12502
lthumb -25.1053 51.4541
rfemur -37.1072 11.7012 16.225
rtibia 23.1708
rfoot -11.2737 -31.3652
rtoes 10.0743
lfemur -39.6151 -4.04173 -12.3575
ltibia 26.2791
lfoot -8.74959 15.0142
ltoes -18.4183
401
root 7.02401 15.9519 19.6418 -153.813 -0.0582099 -175.681
lowerback -10.8978 2.3982 3.31568
upperback -8.89376 4.2191 -0.017568
thorax -3.00822 2.5127 -1.55714
lowerneck -16.0201 17.912 13.9111
upperneck 7.60938 23.3012 -14.9212
head 8.30858 10.4065 -3.66724
rclavicle -4.99384e-014 -8.94531e-015
rhumerus -31.826 20.4567 -90.2757
rradius 79.2908
rwrist -54.6422
rhand -34.457 -57.2892
rfingers 7.12502
rthumb -7.62071 -87.1319
lclavicle -4.99384e-014 -8.94531e-015
lhumerus -31.3893 -41.1637 98.978
lradius 75.3034
lwrist 84.0341
lhand -52.1327 23.2481
lfingers 7.12502
lthumb -24.6347 51.6827
rfemur -36.633 12.4241 16.0672
rtibia 22.934
rfoot -11.6118 -31.3665
rtoes 10.0532
lfemur -39.2371 -4.21783 -12.2946
ltibia 26.1113
lfoot -8.7487 14.976
ltoes -18.4327
402
root 7.01449 15.9546 19.629 -154.064 -0.265605 -175.627
lowerback -11.047 2.42265 3.38775
upperback -8.91732 4.25666 -0.0265814
thorax -2.94681 2.5356 -1.59501
lowerneck -15.3193 18.1266 14.2424
upperneck 7.41548 23.6449 -15.2037
head 8.25761 10.6007 -3.77424
rclavicle 6.38006e-014 2.95195e-014
rhumerus -32.0329 20.1133 -90.3401
rradius 79.2385
rwrist -54.8198
rhand -34.5786 -57.4468
rfingers 7.12502
rthumb -7.73804 -87.2852
lclavicle 6.38006e-014 2.95195e-014
lhumerus -31.2789 -41.2801 98.9812
lradius 74.998
lwrist 83.7969
lhand -51.6191 23.4054
lfingers 7.12502
lthumb -24.1424 51.9063
rfemur -36.1816 13.123 15.9181
rtibia 22.7139
rfoot -11.9311 -31.274
rtoes 9.91742
lfemur -38.8817 -4.38983 -12.2356
ltibia 25.9711
lfoot -8.76387 14.9398
ltoes -18.428
403
root 7.00537 15.9563 19.6167 -154.311 -0.47007 -175.577
lowerback -11.1839 2.44623 3.45704
upperback -8.94114 4.29285 -0.0410357
thorax -2.89217 2.55738 -1.63775
lowerneck -14.6506 18.3296 14.5466
upperneck 7.24304 23.9734 -15.4456
head 8.20957 10.7888 -3.86633
rclavicle 7.00188e-014 1.97791e-014
rhumerus -32.2413 19.7654 -90.4177
rradius 79.1865
rwrist -55.0195
rhand -34.6809 -57.5023
rfingers 7.12502
rthumb -7.83676 -87.3371
lclavicle 7.00188e-014 1.97791e-014
lhumerus -31.1688 -41.4052 98.9719
lradius 74.6915
lwrist 83.552
lhand -51.1839 23.6433
lfingers 7.12502
lthumb -23.725 52.1989
rfemur -35.748 13.7918 15.7761
rtibia 22.5062
rfoot -12.2353 -31.0421
rtoes 9.63231
lfemur -38.5442 -4.56397 -12.1799
ltibia 25.8557
lfoot -8.79347 14.9064
ltoes -18.4139
